# xmcd CD database file
#
# Track frame offsets:
#	150
#	15918
#	35553
#	47885
#	66928
#	84213
#	98515
#	106650
#	118213
#	126230
#	140590
#	148245
#	168770
#	179798
#	186608
#	203413
#	213220
#	228485
#
# Disc length: 3294 seconds
#
# Revision: 1
# Processed by: cddbd v1.5PL3 Copyright (c) Steve Scherf et al.
# Submitted via: CDex 1.51
#
DISCID=fe0cdc12
DTITLE=Charlie Byrd Trio - Music To Dine By
DYEAR=1900
DGENRE=Jazz
TTITLE0=One
TTITLE1=Two
TTITLE2=Three
TTITLE3=Four
TTITLE4=Five
TTITLE5=Six
TTITLE6=Seven
TTITLE7=Eight
TTITLE8=Nine
TTITLE9=Ten
TTITLE10=Eleven
TTITLE11=Twelve
TTITLE12=Thirteen
TTITLE13=Fourteen
TTITLE14=Fifteen
TTITLE15=Sixteen
TTITLE16=Seventeen
TTITLE17=Eightteen
EXTD=
EXTT0=
EXTT1=
EXTT2=
EXTT3=
EXTT4=
EXTT5=
EXTT6=
EXTT7=
EXTT8=
EXTT9=
EXTT10=
EXTT11=
EXTT12=
EXTT13=
EXTT14=
EXTT15=
EXTT16=
EXTT17=
PLAYORDER=
